<svg id="visual" viewBox="0 0 960 540" width="960" height="540" xmlns="http://www.w3.org/2000/svg" xmlns:xlink="http://www.w3.org/1999/xlink" version="1.1"><rect x="0" y="0" width="960" height="540" fill="#FFFFFF"></rect><path d="M0 355L22.8 359.2C45.7 363.3 91.3 371.7 137 387.2C182.7 402.7 228.3 425.3 274 429.3C319.7 433.3 365.3 418.7 411.2 414.5C457 410.3 503 416.7 548.8 427C594.7 437.3 640.3 451.7 686 450C731.7 448.3 777.3 430.7 823 409.2C868.7 387.7 914.3 362.3 937.2 349.7L960 337L960 541L937.2 541C914.3 541 868.7 541 823 541C777.3 541 731.7 541 686 541C640.3 541 594.7 541 548.8 541C503 541 457 541 411.2 541C365.3 541 319.7 541 274 541C228.3 541 182.7 541 137 541C91.3 541 45.7 541 22.8 541L0 541Z" fill="#3a5a8f" stroke-linecap="round" stroke-linejoin="miter"></path></svg>